<?xml version="1.0" encoding="utf-8"?>
<!-- Generator: Adobe Illustrator 15.0.0, SVG Export Plug-In . SVG Version: 6.00 Build 0)  -->
<!DOCTYPE svg PUBLIC "-//W3C//DTD SVG 1.1//EN" "http://www.w3.org/Graphics/SVG/1.1/DTD/svg11.dtd">
<svg version="1.1" id="Layer_1" xmlns="http://www.w3.org/2000/svg" xmlns:xlink="http://www.w3.org/1999/xlink" x="0px" y="0px"
	 width="84.821px" height="88.876px" viewBox="0 0 84.821 88.876" enable-background="new 0 0 84.821 88.876" xml:space="preserve">
<polygon fill="#F29DB3" points="84.821,46.265 79.898,58.147 72.069,47.941 "/>
<polygon fill="#FFFFFF" points="37.449,71.424 56.296,73.688 44.911,88.876 "/>
<rect x="2.367" y="2.348" transform="matrix(-0.7011 0.713 -0.713 -0.7011 19.387 7.9082)" fill="#F29DB3" width="11.339" height="11.338"/>
<g>
	<path fill="#F29DB3" d="M26.874,65.34l17.408-11.521c-6.161-1.325-16.456-6.952-21.909-26.924L7.81,36.532
		C-0.183,41.82-2.42,52.521,2.87,60.514C8.158,68.505,18.882,70.629,26.874,65.34z"/>
	<path fill="#FFFFFF" d="M44.282,53.818l13.145-8.697c7.991-5.288,10.228-15.988,4.938-23.98s-16.012-10.116-24.004-4.826
		l-15.988,10.58C27.826,46.866,38.121,52.493,44.282,53.818z"/>
</g>
</svg>
