<?xml version="1.0" encoding="utf-8"?>
<!-- Generator: Adobe Illustrator 15.0.0, SVG Export Plug-In . SVG Version: 6.00 Build 0)  -->
<!DOCTYPE svg PUBLIC "-//W3C//DTD SVG 1.1//EN" "http://www.w3.org/Graphics/SVG/1.1/DTD/svg11.dtd">
<svg version="1.1" id="Layer_1" xmlns="http://www.w3.org/2000/svg" xmlns:xlink="http://www.w3.org/1999/xlink" x="0px" y="0px"
	 width="94px" height="85.401px" viewBox="0 0 94 85.401" enable-background="new 0 0 94 85.401" xml:space="preserve">
<polygon fill="#F29DB3" points="3.576,60.253 9.903,48.942 16.534,60.076 "/>
<polygon fill="#F29DB3" points="33.931,0.987 46.854,0 41.246,11.684 "/>
<polygon fill="#FFFFFF" points="81.714,30.283 75.164,12.313 94,15.628 "/>
<rect x="1.032" y="16.946" transform="matrix(0.953 0.3031 -0.3031 0.953 6.5965 -0.5477)" fill="#FFFFFF" width="8.061" height="8.061"/>
<rect x="33.298" y="70.828" transform="matrix(0.7823 -0.6229 0.6229 0.7823 -39.3262 41.2563)" fill="#F29DB3" width="12.118" height="12.119"/>
<g>
	<path fill="#F29DB3" d="M81.062,42.559L62.778,32.159c1.615,6.142,1.246,17.957-14.22,31.953l15.294,8.7
		c8.394,4.774,19.029,1.912,23.803-6.483C92.43,57.938,89.455,47.333,81.062,42.559z"/>
	<path fill="#FFFFFF" d="M62.778,32.159l-13.803-7.852c-8.393-4.774-19.028-1.911-23.802,6.483
		c-4.774,8.393-1.8,18.998,6.594,23.771l16.791,9.551C64.024,50.116,64.394,38.301,62.778,32.159z"/>
</g>
</svg>
