<?xml version="1.0" encoding="utf-8"?>
<!-- Generator: Adobe Illustrator 15.0.0, SVG Export Plug-In . SVG Version: 6.00 Build 0)  -->
<!DOCTYPE svg PUBLIC "-//W3C//DTD SVG 1.1//EN" "http://www.w3.org/Graphics/SVG/1.1/DTD/svg11.dtd">
<svg version="1.1" id="Layer_1" xmlns="http://www.w3.org/2000/svg" xmlns:xlink="http://www.w3.org/1999/xlink" x="0px" y="0px"
	 width="435px" height="435px" viewBox="0 0 435 435" enable-background="new 0 0 435 435" xml:space="preserve">
<g>
	<path fill="#FFFFFF" d="M217.491,95.354c-11.016,0-19.99,8.965-19.99,19.991c0,11.02,8.974,19.989,19.99,19.989
		c11.024,0,20.008-8.969,20.008-19.989C237.499,104.319,228.516,95.354,217.491,95.354z M217.491,122.591
		c-3.999,0-7.247-3.254-7.247-7.247c0-3.999,3.249-7.252,7.247-7.252c4.007,0,7.255,3.254,7.255,7.252
		C224.746,119.337,221.498,122.591,217.491,122.591z"/>
	<path fill="#FFFFFF" d="M217.491,299.667c-11.016,0-19.99,8.967-19.99,19.991c0,11.023,8.974,19.993,19.99,19.993
		c11.024,0,20.008-8.97,20.008-19.993C237.499,308.633,228.516,299.667,217.491,299.667z M217.491,326.91
		c-3.999,0-7.247-3.256-7.247-7.252c0-3.999,3.249-7.249,7.247-7.249c4.007,0,7.255,3.25,7.255,7.249
		C224.746,323.654,221.498,326.91,217.491,326.91z"/>
	<path fill="#FFFFFF" d="M396.057,223.874c2.672,7.907,10.157,13.624,18.952,13.624c11.024,0,19.991-8.976,19.991-19.995
		c0-11.025-8.967-19.999-19.991-19.999c-8.795,0-16.28,5.716-18.952,13.622h-29.312c-0.237-5.559-0.766-11.066-1.599-16.494
		l13.916-2.769c3.445-0.688,5.69-4.045,5.002-7.494c-0.681-3.45-4.04-5.691-7.486-5.007l-13.924,2.765
		c-1.311-5.384-2.918-10.681-4.807-15.861l27.067-11.216c2.008,2.297,4.516,4.135,7.417,5.338c2.459,1.021,5.054,1.527,7.639,1.527
		c2.594,0,5.189-0.505,7.656-1.527c4.934-2.042,8.778-5.886,10.82-10.821c2.05-4.937,2.041-10.368,0-15.302
		c-2.042-4.938-5.887-8.779-10.82-10.824c-4.934-2.042-10.36-2.042-15.295,0c-4.95,2.045-8.786,5.886-10.828,10.824
		c-1.199,2.896-1.676,5.972-1.463,9.012l-27.06,11.208c-2.33-5.016-4.95-9.898-7.826-14.623l11.79-7.873
		c2.927-1.96,3.718-5.916,1.762-8.842c-1.958-2.927-5.912-3.712-8.838-1.757l-11.799,7.881c-3.259-4.449-6.764-8.727-10.522-12.811
		l20.722-20.712c2.722,1.356,5.751,2.088,8.89,2.088c5.35,0,10.37-2.084,14.129-5.857c3.794-3.781,5.87-8.8,5.87-14.138
		c0-5.342-2.076-10.365-5.87-14.138c-3.759-3.777-8.779-5.861-14.129-5.861c-5.344,0-10.353,2.084-14.13,5.861
		c-6.227,6.214-7.468,15.541-3.761,23.014l-20.729,20.727c-4.059-3.718-8.329-7.218-12.82-10.506l7.886-11.807
		c1.965-2.931,1.166-6.886-1.76-8.842c-2.927-1.948-6.874-1.166-8.83,1.76c0,0-11.246,16.741-11.382,16.945
		c-1.956,2.931-1.174,6.886,1.753,8.838c38.058,25.459,60.77,67.945,60.77,113.668c0,75.345-61.307,136.643-136.664,136.643
		c-75.34,0-136.638-61.298-136.638-136.643c0-75.352,61.298-136.653,136.638-136.653c18.128,0,35.727,3.487,52.313,10.369
		c3.232,1.339,6.959-0.188,8.312-3.416h0.008l13.594-32.835c0.451,0.034,0.894,0.051,1.336,0.051c7.851,0,15.311-4.648,18.5-12.342
		c4.22-10.187-0.636-21.904-10.819-26.12c-4.934-2.05-10.377-2.05-15.312,0c-4.934,2.042-8.762,5.887-10.811,10.821
		c-2.041,4.929-2.041,10.365,0,15.299c1.198,2.9,3.036,5.41,5.333,7.409l-11.202,27.051c-5.216-1.906-10.506-3.514-15.866-4.819
		l2.758-13.887c0.679-3.449-1.55-6.805-5.003-7.494c-3.452-0.685-6.805,1.552-7.485,5.009l-2.773,13.9
		c-5.443-0.833-10.948-1.37-16.502-1.599V38.938c7.91-2.667,13.628-10.149,13.628-18.944C237.499,8.97,228.516,0,217.491,0
		c-11.016,0-19.99,8.97-19.99,19.994c0,8.795,5.717,16.277,13.627,18.944v29.313c-5.58,0.234-11.092,0.766-16.501,1.604
		l-2.766-13.909c-0.688-3.457-4.041-5.694-7.494-5.009c-3.453,0.688-5.69,4.045-5.001,7.494l2.764,13.917
		c-5.409,1.314-10.709,2.918-15.864,4.81l-11.211-27.072c2.296-1.999,4.133-4.508,5.333-7.409c2.041-4.934,2.041-10.37,0-15.299
		c-2.042-4.934-5.887-8.779-10.821-10.821c-4.933-2.05-10.368-2.05-15.302,0c-10.191,4.216-15.04,15.933-10.821,26.12
		c3.182,7.694,10.651,12.342,18.493,12.342c0.442,0,0.894-0.017,1.344-0.051l11.22,27.093c-5.027,2.343-9.909,4.951-14.604,7.826
		l-7.912-11.837c-1.956-2.926-5.911-3.708-8.829-1.756c-2.935,1.953-3.726,5.912-1.769,8.838l7.928,11.858
		c-4.458,3.271-8.728,6.783-12.794,10.514L95.73,86.724c3.709-7.473,2.468-16.8-3.751-23.019c-3.776-3.777-8.803-5.853-14.137-5.853
		c-5.342,0-10.36,2.076-14.146,5.853c-3.77,3.773-5.854,8.8-5.854,14.138s2.083,10.356,5.854,14.138
		c3.785,3.777,8.803,5.857,14.146,5.857c3.138,0,6.167-0.728,8.897-2.088l20.764,20.768c-3.736,4.067-7.249,8.341-10.514,12.797
		l-11.859-7.918c-2.926-1.957-6.89-1.17-8.837,1.752c-1.957,2.931-1.166,6.886,1.76,8.842l11.834,7.906
		c-2.876,4.705-5.487,9.579-7.827,14.606l-27.092-11.225c0.204-3.036-0.272-6.111-1.472-9.008
		c-2.042-4.934-5.878-8.774-10.819-10.82c-4.926-2.045-10.37-2.045-15.304,0c-4.934,2.046-8.778,5.886-10.82,10.816
		c-2.041,4.934-2.041,10.37,0,15.302c2.042,4.94,5.886,8.779,10.82,10.821c2.467,1.021,5.061,1.536,7.656,1.536
		c2.586,0,5.18-0.514,7.648-1.536c2.9-1.2,5.409-3.033,7.407-5.338l27.068,11.216c-1.888,5.164-3.487,10.455-4.806,15.865
		l-13.917-2.769c-3.461-0.685-6.805,1.557-7.494,5.007c-0.68,3.458,1.548,6.805,5.009,7.494l13.909,2.769
		c-0.833,5.405-1.37,10.917-1.599,16.494H38.941c-2.669-7.906-10.156-13.614-18.951-13.614C8.966,197.504,0,206.478,0,217.503
		c0,11.019,8.966,19.995,19.99,19.995c8.795,0,16.282-5.717,18.951-13.624h29.314c0.229,5.58,0.766,11.088,1.599,16.498
		l-13.909,2.765c-3.461,0.69-5.689,4.045-5.009,7.494c0.603,3.032,3.267,5.13,6.243,5.13c0.408,0,0.833-0.037,1.25-0.122
		l13.917-2.771c1.318,5.411,2.918,10.706,4.806,15.866l-27.068,11.21c-1.998-2.301-4.507-4.134-7.407-5.333
		c-4.926-2.041-10.37-2.041-15.304,0c-4.934,2.047-8.778,5.887-10.82,10.82c-2.041,4.938-2.041,10.368,0,15.302
		c2.042,4.931,5.886,8.779,10.82,10.816c2.467,1.026,5.061,1.541,7.656,1.541c2.586,0,5.18-0.515,7.648-1.541
		c4.934-2.037,8.777-5.886,10.819-10.816c1.2-2.895,1.676-5.97,1.472-9.012l27.092-11.224c2.34,5.026,4.95,9.904,7.827,14.605
		l-11.834,7.906c-2.926,1.957-3.716,5.917-1.76,8.843c1.234,1.834,3.249,2.833,5.299,2.833c1.217,0,2.45-0.35,3.538-1.081
		l11.859-7.918c3.265,4.457,6.778,8.731,10.514,12.798L86.74,339.248c-2.731-1.358-5.759-2.084-8.897-2.084
		c-5.342,0-10.36,2.08-14.146,5.855c-3.77,3.783-5.854,8.801-5.854,14.138c0,5.338,2.083,10.366,5.854,14.134
		c3.785,3.782,8.803,5.857,14.146,5.857c5.333,0,10.36-2.075,14.137-5.857c6.219-6.214,7.461-15.54,3.751-23.014l20.79-20.781
		c4.067,3.731,8.337,7.243,12.794,10.51l-7.928,11.858c-1.958,2.93-1.166,6.89,1.769,8.842c1.081,0.728,2.314,1.076,3.522,1.076
		c2.058,0,4.083-0.995,5.307-2.836l7.912-11.833c4.695,2.865,9.578,5.482,14.604,7.826l-11.22,27.089
		c-8.327-0.558-16.468,4.169-19.837,12.295c-4.219,10.184,0.629,21.906,10.821,26.12c2.466,1.021,5.053,1.53,7.655,1.53
		c2.586,0,5.181-0.51,7.647-1.53c4.934-2.041,8.779-5.887,10.821-10.82c2.041-4.93,2.041-10.366,0-15.3
		c-1.2-2.901-3.037-5.409-5.333-7.412l11.211-27.069c5.154,1.895,10.455,3.493,15.864,4.812l-2.764,13.916
		c-0.689,3.448,1.548,6.805,5.001,7.493c0.425,0.085,0.834,0.124,1.25,0.124c2.978,0,5.64-2.101,6.244-5.126l2.766-13.917
		c5.41,0.839,10.922,1.37,16.501,1.605v29.312c-7.911,2.668-13.627,10.149-13.627,18.945c0,11.024,8.974,19.993,19.99,19.993
		c11.024,0,20.008-8.969,20.008-19.993c0-8.796-5.718-16.277-13.628-18.945V366.75c5.58-0.235,11.092-0.767,16.502-1.605
		l2.773,13.917c0.596,3.025,3.249,5.126,6.227,5.126c0.417,0,0.833-0.039,1.259-0.124c3.453-0.688,5.691-4.045,5.003-7.493
		l-2.766-13.916c5.409-1.319,10.709-2.918,15.864-4.812l11.212,27.069c-2.297,2.003-4.135,4.511-5.333,7.412
		c-2.041,4.934-2.041,10.37,0,15.3c2.049,4.934,5.877,8.779,10.811,10.82c2.468,1.028,5.07,1.53,7.655,1.53
		c2.595,0,5.188-0.51,7.656-1.53c10.184-4.214,15.039-15.937,10.819-26.12c-3.367-8.126-11.509-12.858-19.836-12.295l-11.229-27.089
		c5.027-2.344,9.909-4.961,14.614-7.826l7.911,11.833c1.225,1.841,3.249,2.836,5.291,2.836c1.225,0,2.459-0.349,3.539-1.076
		c2.926-1.952,3.725-5.912,1.76-8.842l-7.92-11.858c4.458-3.267,8.729-6.778,12.795-10.51l20.788,20.781
		c-3.707,7.474-2.466,16.8,3.744,23.014c3.794,3.782,8.803,5.857,14.146,5.857c5.342,0,10.37-2.075,14.129-5.857
		c3.794-3.768,5.87-8.796,5.87-14.134c0-5.337-2.076-10.354-5.87-14.138c-3.759-3.775-8.787-5.855-14.129-5.855
		c-3.139,0-6.168,0.726-8.897,2.084l-20.765-20.764c3.726-4.066,7.246-8.341,10.514-12.798l11.858,7.918
		c1.089,0.731,2.313,1.081,3.537,1.081c2.042,0,4.066-0.999,5.301-2.833c1.948-2.926,1.165-6.886-1.762-8.843l-11.832-7.906
		c2.875-4.701,5.479-9.579,7.834-14.605l27.085,11.224c-0.204,3.036,0.272,6.117,1.472,9.012c2.042,4.931,5.878,8.779,10.82,10.816
		c2.467,1.026,5.062,1.537,7.646,1.537c2.586,0,5.189-0.511,7.656-1.537c4.934-2.037,8.778-5.886,10.82-10.816
		c2.041-4.934,2.041-10.364,0-15.302c-2.042-4.934-5.887-8.773-10.82-10.82c-4.942-2.041-10.36-2.041-15.303,0
		c-2.901,1.199-5.401,3.032-7.409,5.333l-27.067-11.21c1.889-5.16,3.487-10.455,4.807-15.866l13.916,2.771
		c0.416,0.085,0.842,0.122,1.251,0.122c2.977,0,5.647-2.098,6.243-5.13c0.681-3.449-1.557-6.804-5.002-7.494l-13.916-2.765
		c0.833-5.41,1.361-10.918,1.599-16.498H396.057z M393.284,139.14c0.731-1.785,2.126-3.181,3.913-3.917
		c0.901-0.374,1.838-0.561,2.772-0.561c0.945,0,1.88,0.187,2.781,0.561c1.787,0.736,3.182,2.132,3.922,3.917
		c0.749,1.794,0.749,3.764,0,5.551c-0.74,1.791-2.135,3.182-3.922,3.922c-1.786,0.744-3.768,0.744-5.554,0
		c-1.787-0.74-3.182-2.131-3.913-3.922C392.536,142.904,392.536,140.935,393.284,139.14z M135.218,37.798
		c-1.531-3.692,0.229-7.937,3.929-9.472c0.886-0.37,1.829-0.557,2.773-0.557c0.936,0,1.873,0.187,2.773,0.557
		c1.786,0.745,3.181,2.135,3.921,3.922c0.741,1.794,0.741,3.764,0,5.55c-0.74,1.791-2.135,3.182-3.921,3.926l0,0l0,0
		C141.001,43.255,136.749,41.494,135.218,37.798z M286.384,32.249c0.741-1.787,2.136-3.178,3.923-3.922
		c0.893-0.37,1.836-0.557,2.771-0.557c0.944,0,1.88,0.187,2.774,0.557c3.7,1.536,5.453,5.78,3.93,9.472
		c-1.531,3.696-5.784,5.453-9.476,3.926l0,0l0,0c-1.787-0.745-3.182-2.135-3.923-3.926
		C285.645,36.012,285.645,34.042,286.384,32.249L286.384,32.249z M217.491,12.743c4.007,0,7.255,3.253,7.255,7.251
		c0,3.994-3.248,7.243-7.255,7.243c-3.999,0-7.247-3.249-7.247-7.243C210.244,15.996,213.493,12.743,217.491,12.743z
		 M37.803,148.613c-1.786,0.744-3.76,0.744-5.546,0c-1.788-0.74-3.182-2.131-3.931-3.922c-0.74-1.787-0.74-3.756,0-5.546
		c0.749-1.79,2.143-3.186,3.931-3.922c0.884-0.374,1.836-0.557,2.772-0.557c0.935,0,1.88,0.183,2.773,0.557
		c1.786,0.736,3.181,2.132,3.93,3.922c0.731,1.79,0.731,3.759,0,5.546C40.983,146.481,39.588,147.873,37.803,148.613z
		 M41.732,295.856c-0.749,1.79-2.144,3.182-3.93,3.931c-1.786,0.735-3.76,0.735-5.546,0c-1.788-0.749-3.182-2.141-3.931-3.931
		c-0.74-1.791-0.74-3.761,0-5.547c0.749-1.789,2.143-3.177,3.931-3.922c0.893-0.374,1.836-0.553,2.772-0.553
		c0.935,0,1.88,0.179,2.773,0.553c1.786,0.745,3.181,2.133,3.93,3.922C42.464,292.095,42.464,294.065,41.732,295.856z
		 M72.712,82.968c-1.361-1.37-2.119-3.19-2.119-5.125c0-1.939,0.758-3.76,2.119-5.129c1.37-1.365,3.19-2.123,5.13-2.123
		c1.93,0,3.751,0.757,5.121,2.123c2.832,2.829,2.832,7.431,0,10.25c-1.37,1.37-3.191,2.126-5.121,2.126
		C75.903,85.09,74.082,84.337,72.712,82.968z M19.99,224.75c-3.999,0-7.248-3.255-7.248-7.248c0-4.003,3.249-7.252,7.248-7.252
		c3.998,0,7.248,3.249,7.248,7.252C27.238,221.496,23.988,224.75,19.99,224.75z M82.972,362.283
		c-1.378,1.37-3.199,2.123-5.129,2.123c-1.932,0-3.76-0.753-5.13-2.123c-1.361-1.366-2.119-3.186-2.119-5.126
		c0-1.935,0.758-3.754,2.119-5.124c1.37-1.369,3.198-2.122,5.13-2.122c1.93,0,3.751,0.757,5.129,2.122
		C85.795,354.86,85.795,359.454,82.972,362.283L82.972,362.283z M148.614,402.749c-0.74,1.791-2.135,3.182-3.921,3.921
		c-1.787,0.739-3.76,0.739-5.547,0c-3.7-1.53-5.459-5.775-3.929-9.468c1.531-3.696,5.784-5.458,9.467-3.925h0.009l0,0
		c1.786,0.743,3.181,2.13,3.921,3.925C149.355,398.989,149.355,400.958,148.614,402.749L148.614,402.749z M299.782,397.202
		c1.523,3.692-0.229,7.938-3.93,9.468c-1.786,0.739-3.76,0.739-5.546,0c-1.787-0.739-3.182-2.13-3.923-3.921
		c-0.739-1.791-0.739-3.76,0-5.547c0.741-1.795,2.136-3.186,3.923-3.925l0,0l0,0c0.91-0.378,1.836-0.553,2.755-0.553
		C295.92,392.724,298.624,394.412,299.782,397.202z M217.491,422.257c-3.999,0-7.247-3.254-7.247-7.251
		c0-3.994,3.249-7.244,7.247-7.244c4.007,0,7.255,3.25,7.255,7.244C224.746,419.003,221.498,422.257,217.491,422.257z
		 M397.197,286.387c1.786-0.745,3.768-0.745,5.554,0c1.787,0.737,3.182,2.133,3.922,3.922c0.749,1.786,0.749,3.756,0,5.547
		c-0.74,1.79-2.135,3.182-3.922,3.931c-1.786,0.735-3.768,0.735-5.554,0c-1.787-0.749-3.182-2.141-3.913-3.931
		c-0.748-1.791-0.748-3.761,0-5.547C394.016,288.52,395.41,287.125,397.197,286.387z M415.009,210.251
		c3.999,0,7.248,3.249,7.248,7.252c0,3.993-3.249,7.248-7.248,7.248s-7.247-3.255-7.247-7.248
		C407.762,213.5,411.01,210.251,415.009,210.251L415.009,210.251z M352.028,72.713c1.377-1.365,3.199-2.123,5.13-2.123
		c1.938,0,3.76,0.757,5.128,2.123c1.362,1.369,2.118,3.19,2.118,5.129c0,1.935-0.756,3.755-2.118,5.125
		c-1.368,1.369-3.189,2.122-5.128,2.122c-1.931,0-3.753-0.757-5.13-2.122C349.203,80.144,349.203,75.542,352.028,72.713z
		 M362.286,352.033c1.362,1.37,2.118,3.189,2.118,5.124c0,1.94-0.756,3.76-2.118,5.126c-1.368,1.37-3.189,2.123-5.128,2.123
		c-1.931,0-3.753-0.753-5.13-2.123c-2.825-2.825-2.825-7.423,0-10.246c1.377-1.369,3.199-2.126,5.13-2.126
		C359.097,349.911,360.918,350.664,362.286,352.033L362.286,352.033z"/>
	<path fill="#FFFFFF" d="M339.652,217.503c0-11.025-8.976-19.999-19.99-19.999c-11.034,0-19.999,8.974-19.999,19.999
		c0,11.019,8.965,19.995,19.999,19.995C330.677,237.498,339.652,228.522,339.652,217.503z M312.405,217.503
		c0-4.003,3.249-7.252,7.257-7.252c3.988,0,7.247,3.249,7.247,7.252c0,3.993-3.259,7.248-7.247,7.248
		C315.654,224.75,312.405,221.5,312.405,217.503z"/>
	<path fill="#FFFFFF" d="M95.357,217.503c0,11.019,8.965,19.995,19.99,19.995c11.023,0,19.989-8.976,19.989-19.995
		c0-11.025-8.974-19.999-19.989-19.999C104.322,197.504,95.357,206.478,95.357,217.503z M122.593,217.503
		c0,3.997-3.257,7.248-7.246,7.248c-3.998,0-7.257-3.255-7.257-7.248c0-4.003,3.259-7.252,7.257-7.252
		C119.336,210.251,122.593,213.5,122.593,217.503z"/>
	<path fill="#FFFFFF" d="M131.126,131.127c-3.785,3.777-5.861,8.796-5.861,14.134c0,5.341,2.076,10.364,5.861,14.138
		c3.776,3.776,8.796,5.855,14.129,5.855c5.342,0,10.369-2.079,14.138-5.855c3.785-3.774,5.861-8.797,5.861-14.138
		c0-5.337-2.076-10.356-5.861-14.134c-3.769-3.782-8.796-5.856-14.138-5.856C139.922,125.271,134.902,127.346,131.126,131.127z
		 M152.511,145.261c0,1.936-0.758,3.755-2.119,5.129c-1.377,1.37-3.198,2.123-5.138,2.123c-1.931,0-3.743-0.753-5.121-2.123
		c-1.37-1.374-2.127-3.193-2.127-5.129c0-1.936,0.758-3.751,2.127-5.121c1.377-1.375,3.189-2.127,5.121-2.127
		c1.939,0,3.76,0.753,5.138,2.127C151.753,141.51,152.511,143.325,152.511,145.261L152.511,145.261z"/>
	<path fill="#FFFFFF" d="M289.735,309.73c5.334,0,10.37-2.076,14.138-5.855c3.777-3.77,5.861-8.797,5.861-14.135
		c0-5.343-2.084-10.362-5.861-14.138c-3.768-3.777-8.804-5.857-14.138-5.857c-5.333,0-10.352,2.08-14.137,5.857
		c-3.777,3.775-5.861,8.795-5.861,14.138c0,5.338,2.084,10.365,5.861,14.135C279.384,307.654,284.402,309.73,289.735,309.73z
		 M284.606,284.611c1.379-1.37,3.198-2.119,5.129-2.119c1.941,0,3.751,0.749,5.13,2.119c1.36,1.373,2.118,3.189,2.118,5.129
		c0,1.935-0.758,3.751-2.118,5.12c-1.379,1.37-3.188,2.127-5.13,2.127c-1.931,0-3.75-0.757-5.129-2.127
		c-1.37-1.369-2.126-3.189-2.126-5.124C282.48,287.8,283.236,285.984,284.606,284.611L284.606,284.611z"/>
	<path fill="#FFFFFF" d="M294.865,150.39c-1.379,1.37-3.188,2.123-5.13,2.123c-1.931,0-3.75-0.753-5.129-2.123
		c-1.37-1.374-2.126-3.193-2.126-5.129c0-1.936,0.756-3.751,2.126-5.121c2.493-2.492,2.493-6.529,0-9.013
		c-2.484-2.487-6.516-2.487-9.008,0c-3.777,3.777-5.861,8.796-5.861,14.134c0,5.341,2.084,10.364,5.861,14.138
		c3.785,3.776,8.804,5.855,14.137,5.855c5.334,0,10.37-2.079,14.138-5.855c2.493-2.488,2.493-6.521,0-9.009
		C301.381,147.902,297.349,147.902,294.865,150.39L294.865,150.39z"/>
	<path fill="#FFFFFF" d="M145.255,309.73c5.342,0,10.369-2.076,14.138-5.855c2.492-2.489,2.492-6.521,0-9.015
		c-2.484-2.483-6.516-2.483-9,0c-1.377,1.37-3.198,2.127-5.13,2.127c-1.929,0-3.751-0.757-5.128-2.127
		c-1.362-1.369-2.127-3.189-2.127-5.124c0-1.936,0.765-3.758,2.127-5.125c2.483-2.489,2.483-6.525,0-9.013
		c-2.484-2.485-6.515-2.485-9.008,0c-3.785,3.775-5.861,8.795-5.861,14.138c0,5.338,2.076,10.361,5.861,14.139
		C134.902,307.654,139.922,309.73,145.255,309.73L145.255,309.73z"/>
	<path fill="#FFFFFF" d="M217.491,156.642c-11.016,0-19.99,8.972-19.99,19.996s8.974,19.989,19.99,19.989
		c11.024,0,20.008-8.965,20.008-19.989S228.516,156.642,217.491,156.642z M217.491,183.884c-3.999,0-7.247-3.254-7.247-7.247
		c0-3.995,3.249-7.252,7.247-7.252c4.007,0,7.255,3.257,7.255,7.252C224.746,180.63,221.498,183.884,217.491,183.884z"/>
	<path fill="#FFFFFF" d="M217.491,238.374c-11.016,0-19.99,8.961-19.99,19.99c0,11.021,8.974,19.993,19.99,19.993
		c11.024,0,20.008-8.973,20.008-19.993C237.499,247.334,228.516,238.374,217.491,238.374z M217.491,265.615
		c-3.999,0-7.247-3.254-7.247-7.251c0-3.995,3.249-7.252,7.247-7.252c4.007,0,7.255,3.257,7.255,7.252
		C224.746,262.361,221.498,265.615,217.491,265.615z"/>
	<path fill="#FFFFFF" d="M278.354,217.503c0-11.025-8.976-19.999-19.989-19.999c-11.034,0-19.991,8.974-19.991,19.999
		c0,11.019,8.957,19.995,19.981,19.995C269.379,237.498,278.354,228.522,278.354,217.503z M258.365,224.75
		c-3.999,0-7.248-3.255-7.248-7.248c0-4.003,3.249-7.252,7.248-7.252c3.989,0,7.246,3.249,7.246,7.252
		C265.611,221.496,262.354,224.75,258.365,224.75z"/>
	<path fill="#FFFFFF" d="M196.634,217.503c0-11.025-8.974-19.999-19.99-19.999c-11.025,0-20.008,8.974-20.008,19.999
		c0,11.019,8.983,19.995,19.999,19.995C187.66,237.498,196.634,228.522,196.634,217.503z M176.635,224.75
		c-3.999,0-7.256-3.255-7.256-7.248c0-4.003,3.267-7.252,7.256-7.252c3.989,0,7.256,3.249,7.256,7.252
		C183.891,221.496,180.624,224.75,176.635,224.75z"/>
	<path fill="#F29DB3" d="M176.635,183.009h0.068c3.522,0,6.337-2.854,6.337-6.372s-2.893-6.372-6.405-6.372
		s-6.371,2.854-6.371,6.372S173.122,183.009,176.635,183.009z"/>
	<path fill="#F29DB3" d="M176.703,264.736c3.522,0,6.337-2.854,6.337-6.372s-2.893-6.371-6.405-6.371s-6.371,2.854-6.371,6.371
		s2.858,6.372,6.371,6.372H176.703z"/>
	<path fill="#F29DB3" d="M251.925,176.638c0,3.518,2.85,6.372,6.372,6.372h0.068c3.513,0,6.337-2.854,6.337-6.372
		s-2.893-6.372-6.405-6.372C254.774,170.266,251.925,173.12,251.925,176.638L251.925,176.638z"/>
	<path fill="#F29DB3" d="M178.413,129.507c0.816,0,1.633-0.157,2.433-0.489l0.059-0.026c3.257-1.348,4.772-5.061,3.42-8.314
		c-1.354-3.259-5.113-4.781-8.363-3.433c-3.249,1.345-4.79,5.07-3.445,8.324C173.531,128.027,175.911,129.507,178.413,129.507z"/>
	<path fill="#F29DB3" d="M309.429,172.532c-3.25,1.362-4.78,5.092-3.421,8.341c1.021,2.441,3.387,3.922,5.869,3.922
		c0.835,0,1.66-0.162,2.46-0.494l0.06-0.029c3.249-1.353,4.755-5.074,3.394-8.319C316.438,172.703,312.679,171.185,309.429,172.532
		L309.429,172.532z"/>
	<path fill="#F29DB3" d="M123.121,262.982c0.817,0,1.642-0.155,2.434-0.483l0.068-0.031c3.249-1.353,4.763-5.065,3.419-8.31
		c-1.353-3.26-5.112-4.785-8.354-3.442c-3.257,1.353-4.798,5.078-3.454,8.333C118.255,261.501,120.62,262.982,123.121,262.982
		L123.121,262.982z"/>
	<path fill="#F29DB3" d="M254.153,306.008c-3.25,1.349-4.797,5.077-3.436,8.327c1.012,2.454,3.385,3.935,5.887,3.935
		c0.798,0,1.633-0.157,2.432-0.488l0.061-0.025c3.258-1.345,4.763-5.062,3.41-8.315
		C261.162,306.191,257.402,304.664,254.153,306.008L254.153,306.008z"/>
	<path fill="#F29DB3" d="M258.297,251.993c-3.522,0-6.372,2.854-6.372,6.371s2.85,6.372,6.372,6.372h0.068
		c3.513,0,6.337-2.854,6.337-6.372S261.81,251.993,258.297,251.993L258.297,251.993z"/>
	<path fill="#F29DB3" d="M117.252,175.995c-1.352,3.245,0.188,6.976,3.437,8.324c0.799,0.335,1.625,0.493,2.45,0.493
		c2.492,0,4.865-1.475,5.885-3.93l0.026-0.06c1.353-3.253-0.204-6.949-3.445-8.302C122.347,171.172,118.604,172.741,117.252,175.995
		L117.252,175.995z"/>
	<path fill="#F29DB3" d="M259.045,117.22c-3.257-1.332-7.001,0.263-8.327,3.517c-1.328,3.253,0.229,6.979,3.486,8.314
		c0.783,0.319,1.599,0.473,2.417,0.473c2.5,0,4.882-1.494,5.886-3.96l0.034-0.063C263.868,122.237,262.303,118.555,259.045,117.22
		L259.045,117.22z"/>
	<path fill="#F29DB3" d="M175.979,317.798c0.801,0.336,1.635,0.489,2.442,0.489c2.493,0,4.875-1.48,5.887-3.921l0.025-0.07
		c1.352-3.243-0.205-6.943-3.455-8.298c-3.24-1.353-6.991,0.218-8.336,3.464C171.191,312.719,172.73,316.445,175.979,317.798
		L175.979,317.798z"/>
	<path fill="#F29DB3" d="M317.782,259.074l0.024-0.067c1.353-3.25-0.195-6.946-3.445-8.294c-3.25-1.353-6.991,0.217-8.344,3.47
		c-1.354,3.249,0.188,6.976,3.438,8.328c0.798,0.331,1.624,0.492,2.439,0.492C314.396,263.002,316.769,261.525,317.782,259.074
		L317.782,259.074z"/>
</g>
</svg>
