<svg version="1.1" id="Layer_1" xmlns="http://www.w3.org/2000/svg" xmlns:xlink="http://www.w3.org/1999/xlink" x="0px" y="0px"
	 width="160px" height="50px" viewBox="0 0 160 50" enable-background="new 0 0 160 50" xml:space="preserve">
<g>
	<g>
		<path fill="#F29DB3" d="M24.083,11.091c-1.242,0-2.254,1.031-2.254,2.298c0,1.266,1.012,2.297,2.254,2.297
			c1.243,0,2.254-1.032,2.254-2.297C26.337,12.122,25.326,11.091,24.083,11.091z M24.083,14.222c-0.45,0-0.816-0.374-0.816-0.833
			c0-0.46,0.366-0.834,0.816-0.834c0.451,0,0.817,0.375,0.817,0.834C24.9,13.848,24.534,14.222,24.083,14.222z"/>
		<path fill="#F29DB3" d="M24.083,34.576c-1.242,0-2.254,1.031-2.254,2.298c0,1.268,1.012,2.298,2.254,2.298
			c1.243,0,2.254-1.03,2.254-2.298C26.337,35.607,25.326,34.576,24.083,34.576z M24.083,37.707c-0.45,0-0.816-0.373-0.816-0.833
			s0.366-0.833,0.816-0.833c0.451,0,0.817,0.373,0.817,0.833S24.534,37.707,24.083,37.707z"/>
		<path fill="#F29DB3" d="M44.215,25.865c0.302,0.909,1.145,1.565,2.137,1.565c1.243,0,2.254-1.031,2.254-2.298
			s-1.011-2.298-2.254-2.298c-0.992,0-1.835,0.657-2.137,1.565h-3.307c-0.026-0.639-0.085-1.272-0.18-1.896l1.568-0.319
			c0.39-0.078,0.643-0.464,0.566-0.86c-0.079-0.396-0.457-0.655-0.847-0.576l-1.568,0.317c-0.147-0.619-0.33-1.228-0.543-1.822
			l3.054-1.29c0.225,0.264,0.508,0.475,0.834,0.613c0.278,0.118,0.57,0.176,0.863,0.176c0.291,0,0.585-0.059,0.861-0.176
			c0.557-0.234,0.99-0.676,1.222-1.244c0.23-0.567,0.229-1.191,0-1.758c-0.231-0.568-0.665-1.009-1.222-1.245
			c-0.556-0.234-1.168-0.234-1.725,0c-0.556,0.236-0.989,0.677-1.22,1.245c-0.136,0.332-0.189,0.686-0.165,1.036l-3.052,1.287
			c-0.263-0.576-0.557-1.137-0.88-1.68l1.329-0.905c0.33-0.225,0.418-0.681,0.197-1.017c-0.221-0.336-0.665-0.427-0.996-0.202
			l-1.33,0.906c-0.367-0.51-0.764-1.003-1.187-1.473l2.335-2.38c0.308,0.156,0.648,0.24,1.003,0.24c0.603,0,1.169-0.24,1.595-0.674
			s0.66-1.01,0.66-1.625c0-0.614-0.234-1.19-0.66-1.625s-0.992-0.673-1.595-0.673c-0.602,0-1.168,0.239-1.594,0.673
			c-0.701,0.715-0.841,1.787-0.424,2.646l-2.336,2.381c-0.456-0.426-0.939-0.83-1.446-1.207l0.89-1.357
			c0.221-0.337,0.133-0.792-0.197-1.017c-0.33-0.224-0.776-0.134-0.997,0.202c0,0-1.267,1.924-1.282,1.948
			c-0.221,0.337-0.133,0.791,0.197,1.016c4.29,2.927,6.851,7.811,6.851,13.065c0,8.662-6.911,15.707-15.406,15.707
			c-8.494,0-15.405-7.045-15.405-15.707c0-8.661,6.911-15.707,15.405-15.707c2.043,0,4.027,0.401,5.897,1.192
			c0.365,0.153,0.783-0.022,0.937-0.393l0,0L32.45,6.45c0.052,0.004,0.102,0.005,0.151,0.005c0.885,0,1.726-0.535,2.086-1.419
			c0.476-1.17-0.072-2.517-1.22-3.002c-0.558-0.236-1.169-0.236-1.726,0c-0.558,0.234-0.99,0.676-1.22,1.244
			c-0.23,0.567-0.23,1.191,0,1.758c0.134,0.334,0.341,0.622,0.603,0.852L29.86,8.998c-0.588-0.219-1.184-0.405-1.789-0.555
			l0.312-1.596c0.076-0.396-0.176-0.782-0.566-0.86c-0.389-0.079-0.767,0.178-0.844,0.575l-0.312,1.597
			c-0.613-0.096-1.234-0.156-1.86-0.184V4.607c0.892-0.306,1.535-1.167,1.535-2.177c0-1.268-1.011-2.298-2.254-2.298
			c-1.242,0-2.254,1.03-2.254,2.298c0,1.011,0.645,1.872,1.535,2.177v3.37c-0.629,0.026-1.25,0.088-1.859,0.185l-0.312-1.599
			c-0.078-0.397-0.457-0.654-0.846-0.575c-0.388,0.078-0.642,0.464-0.564,0.86l0.312,1.6C19.486,8.599,18.89,8.783,18.308,9
			l-1.266-3.111c0.26-0.23,0.467-0.518,0.603-0.852c0.23-0.567,0.23-1.191,0-1.758c-0.23-0.567-0.663-1.009-1.22-1.244
			c-0.557-0.236-1.169-0.236-1.726,0c-1.147,0.485-1.695,1.832-1.219,3.002c0.358,0.884,1.199,1.419,2.085,1.419
			c0.05,0,0.1-0.001,0.149-0.005l1.267,3.113c-0.567,0.27-1.117,0.569-1.647,0.9l-0.891-1.36c-0.221-0.336-0.667-0.426-0.997-0.202
			c-0.33,0.225-0.418,0.681-0.197,1.017l0.893,1.363c-0.504,0.375-0.985,0.779-1.443,1.208L10.356,10.1
			c0.417-0.859,0.277-1.93-0.424-2.646C9.507,7.02,8.94,6.781,8.339,6.781c-0.603,0-1.169,0.239-1.595,0.673s-0.66,1.012-0.66,1.625
			c0,0.615,0.234,1.191,0.66,1.625s0.992,0.674,1.595,0.674c0.354,0,0.695-0.083,1.003-0.24l2.341,2.387
			c-0.421,0.467-0.816,0.959-1.186,1.472L9.16,14.084c-0.33-0.225-0.775-0.134-0.996,0.202c-0.221,0.337-0.133,0.792,0.197,1.017
			l1.335,0.91c-0.324,0.54-0.617,1.101-0.882,1.678l-3.056-1.29c0.023-0.35-0.03-0.704-0.165-1.036
			c-0.23-0.567-0.664-1.009-1.22-1.244c-0.557-0.234-1.169-0.234-1.725,0c-0.556,0.235-0.989,0.677-1.22,1.244
			c-0.231,0.567-0.231,1.191,0,1.758c0.23,0.568,0.664,1.009,1.22,1.244c0.277,0.118,0.569,0.177,0.862,0.177
			s0.584-0.06,0.862-0.177c0.328-0.137,0.609-0.348,0.835-0.613l3.053,1.29c-0.214,0.593-0.396,1.201-0.543,1.822L6.15,20.748
			c-0.39-0.079-0.768,0.179-0.846,0.576c-0.077,0.397,0.176,0.782,0.565,0.86l1.567,0.319c-0.093,0.622-0.154,1.255-0.181,1.896
			H3.952c-0.301-0.908-1.144-1.565-2.135-1.565c-1.243,0-2.255,1.031-2.255,2.298s1.012,2.298,2.255,2.298
			c0.991,0,1.834-0.656,2.135-1.565h3.305c0.026,0.641,0.086,1.274,0.181,1.895L5.87,28.078c-0.39,0.08-0.643,0.465-0.565,0.861
			c0.068,0.35,0.368,0.59,0.704,0.59c0.047,0,0.094-0.004,0.142-0.014l1.568-0.318c0.147,0.621,0.329,1.229,0.543,1.822
			l-3.053,1.289c-0.226-0.264-0.507-0.475-0.835-0.612c-0.557-0.235-1.169-0.235-1.725,0c-0.556,0.234-0.989,0.677-1.221,1.243
			c-0.23,0.567-0.23,1.192,0,1.76c0.231,0.565,0.664,1.008,1.22,1.242c0.278,0.118,0.57,0.178,0.863,0.178s0.584-0.06,0.862-0.178
			c0.556-0.234,0.989-0.677,1.22-1.242c0.135-0.334,0.188-0.688,0.165-1.036l3.056-1.29c0.265,0.577,0.558,1.138,0.882,1.678
			L8.361,34.96c-0.33,0.225-0.418,0.681-0.197,1.017c0.138,0.211,0.366,0.326,0.599,0.326c0.136,0,0.274-0.041,0.397-0.125
			l1.336-0.91c0.37,0.512,0.766,1.004,1.187,1.472l-2.341,2.386c-0.308-0.155-0.648-0.238-1.003-0.238
			c-0.603,0-1.169,0.238-1.595,0.673s-0.66,1.011-0.66,1.625s0.234,1.19,0.66,1.624c0.426,0.435,0.992,0.674,1.595,0.674
			c0.602,0,1.168-0.239,1.594-0.674c0.701-0.715,0.841-1.787,0.424-2.646l2.342-2.388c0.458,0.428,0.939,0.832,1.443,1.207
			l-0.893,1.363c-0.221,0.337-0.133,0.792,0.197,1.017c0.123,0.084,0.261,0.123,0.398,0.123c0.232,0,0.46-0.113,0.599-0.325
			l0.891-1.36c0.53,0.329,1.08,0.63,1.647,0.899l-1.267,3.113c-0.938-0.063-1.855,0.479-2.234,1.414
			c-0.477,1.17,0.071,2.518,1.219,3.002c0.279,0.117,0.571,0.176,0.862,0.176c0.294,0,0.585-0.059,0.863-0.176
			c0.557-0.235,0.989-0.677,1.22-1.244c0.23-0.566,0.23-1.191,0-1.758c-0.136-0.334-0.343-0.622-0.603-0.853l1.266-3.111
			c0.582,0.218,1.179,0.401,1.788,0.554l-0.312,1.6c-0.077,0.396,0.177,0.781,0.564,0.861c0.048,0.01,0.096,0.015,0.142,0.015
			c0.336,0,0.636-0.243,0.704-0.591l0.312-1.599c0.609,0.097,1.23,0.157,1.859,0.185v3.369c-0.891,0.307-1.535,1.166-1.535,2.177
			c0,1.267,1.012,2.299,2.254,2.299c1.243,0,2.254-1.032,2.254-2.299c0-1.011-0.644-1.87-1.535-2.177v-3.369
			c0.63-0.027,1.25-0.088,1.86-0.185l0.312,1.599c0.067,0.348,0.368,0.591,0.704,0.591c0.046,0,0.094-0.005,0.14-0.015
			c0.391-0.08,0.643-0.465,0.566-0.861l-0.312-1.6c0.609-0.152,1.206-0.336,1.787-0.554l1.267,3.111
			c-0.262,0.23-0.469,0.519-0.603,0.853c-0.23,0.566-0.23,1.191,0,1.758c0.229,0.567,0.662,1.009,1.22,1.244
			c0.278,0.119,0.569,0.176,0.863,0.176c0.291,0,0.583-0.059,0.862-0.176c1.147-0.484,1.695-1.832,1.22-3.002
			c-0.38-0.935-1.298-1.479-2.237-1.414l-1.266-3.113c0.567-0.27,1.117-0.57,1.647-0.899l0.892,1.36
			c0.139,0.212,0.366,0.325,0.599,0.325c0.138,0,0.275-0.039,0.398-0.123c0.33-0.225,0.418-0.68,0.197-1.017l-0.894-1.363
			c0.503-0.375,0.985-0.779,1.443-1.207l2.343,2.388c-0.417,0.858-0.277,1.931,0.424,2.646c0.426,0.435,0.992,0.674,1.594,0.674
			c0.603,0,1.169-0.239,1.595-0.674c0.426-0.434,0.659-1.01,0.659-1.624s-0.233-1.19-0.659-1.625s-0.992-0.673-1.595-0.673
			c-0.354,0-0.695,0.083-1.003,0.238l-2.342-2.386c0.422-0.468,0.817-0.96,1.186-1.472l1.337,0.91
			c0.123,0.084,0.263,0.125,0.398,0.125c0.231,0,0.461-0.115,0.599-0.326c0.221-0.336,0.133-0.792-0.198-1.017l-1.334-0.909
			c0.324-0.54,0.617-1.101,0.882-1.678l3.056,1.29c-0.024,0.349,0.029,0.702,0.165,1.036c0.23,0.565,0.664,1.008,1.22,1.242
			c0.278,0.118,0.57,0.178,0.863,0.178c0.291,0,0.583-0.06,0.861-0.178c0.557-0.234,0.99-0.677,1.22-1.242
			c0.231-0.567,0.231-1.192,0-1.76c-0.229-0.566-0.663-1.009-1.22-1.243c-0.557-0.235-1.168-0.235-1.725,0
			c-0.328,0.138-0.609,0.349-0.835,0.612l-3.053-1.289c0.213-0.593,0.395-1.201,0.543-1.822l1.568,0.318
			c0.048,0.01,0.096,0.014,0.143,0.014c0.334,0,0.635-0.24,0.702-0.59c0.078-0.396-0.175-0.781-0.564-0.861l-1.568-0.318
			c0.095-0.621,0.155-1.254,0.181-1.895H44.215z M43.9,16.124c0.084-0.205,0.241-0.365,0.443-0.449
			c0.101-0.043,0.206-0.065,0.312-0.065c0.105,0,0.211,0.021,0.312,0.065c0.201,0.084,0.358,0.244,0.442,0.449
			c0.083,0.207,0.083,0.433,0,0.639c-0.084,0.206-0.241,0.366-0.442,0.451c-0.201,0.086-0.424,0.086-0.625,0
			c-0.202-0.085-0.359-0.245-0.443-0.451C43.818,16.557,43.818,16.331,43.9,16.124z M14.808,4.476
			c-0.172-0.424,0.025-0.912,0.441-1.088c0.102-0.043,0.207-0.064,0.312-0.064c0.106,0,0.213,0.021,0.312,0.064
			c0.203,0.085,0.359,0.244,0.443,0.45c0.083,0.207,0.083,0.433,0,0.638c-0.084,0.207-0.24,0.366-0.442,0.451h-0.001l0,0
			C15.458,5.103,14.979,4.901,14.808,4.476z M31.85,3.838c0.082-0.206,0.24-0.365,0.442-0.45c0.101-0.043,0.206-0.064,0.313-0.064
			c0.105,0,0.211,0.021,0.312,0.064c0.417,0.176,0.614,0.664,0.443,1.088c-0.174,0.425-0.651,0.626-1.068,0.451l0,0l0,0
			c-0.202-0.085-0.36-0.244-0.442-0.451C31.766,4.271,31.766,4.045,31.85,3.838L31.85,3.838z M24.083,1.597
			c0.451,0,0.817,0.373,0.817,0.833c0,0.459-0.366,0.833-0.817,0.833c-0.45,0-0.816-0.374-0.816-0.833
			C23.267,1.97,23.633,1.597,24.083,1.597z M3.823,17.213c-0.201,0.086-0.423,0.086-0.625,0c-0.201-0.085-0.357-0.245-0.442-0.451
			c-0.083-0.206-0.083-0.432,0-0.638c0.085-0.206,0.241-0.366,0.442-0.45C3.3,15.631,3.405,15.61,3.512,15.61
			s0.212,0.021,0.312,0.065c0.203,0.084,0.359,0.244,0.443,0.45c0.083,0.206,0.083,0.432,0,0.638
			C4.183,16.969,4.026,17.128,3.823,17.213z M4.267,34.139c-0.084,0.205-0.24,0.365-0.443,0.451c-0.201,0.084-0.423,0.084-0.625,0
			c-0.201-0.086-0.357-0.246-0.442-0.451c-0.083-0.207-0.083-0.432,0-0.638c0.085-0.206,0.241-0.366,0.442-0.452
			c0.102-0.043,0.207-0.062,0.313-0.062s0.212,0.02,0.312,0.062c0.203,0.086,0.359,0.246,0.443,0.452
			C4.35,33.707,4.35,33.932,4.267,34.139z M7.761,9.668C7.605,9.51,7.521,9.301,7.521,9.078c0-0.223,0.084-0.432,0.239-0.588
			C7.914,8.333,8.12,8.246,8.339,8.246c0.218,0,0.424,0.087,0.577,0.244c0.319,0.325,0.319,0.854,0,1.177
			C8.763,9.826,8.557,9.911,8.339,9.911C8.12,9.911,7.914,9.826,7.761,9.668z M1.817,25.964c-0.451,0-0.818-0.374-0.818-0.833
			s0.367-0.833,0.818-0.833c0.449,0,0.815,0.374,0.815,0.833S2.267,25.964,1.817,25.964z M8.916,41.773
			c-0.153,0.158-0.359,0.244-0.577,0.244c-0.219,0-0.425-0.086-0.578-0.244c-0.155-0.156-0.239-0.366-0.239-0.589
			c0-0.224,0.084-0.433,0.239-0.589c0.153-0.158,0.359-0.244,0.578-0.244c0.218,0,0.424,0.086,0.577,0.244
			C9.235,40.92,9.235,41.448,8.916,41.773L8.916,41.773z M16.317,46.425c-0.084,0.206-0.24,0.366-0.443,0.45
			c-0.201,0.086-0.423,0.086-0.625,0c-0.416-0.176-0.613-0.663-0.441-1.088s0.65-0.627,1.066-0.451l0,0c0.001,0,0.001,0,0.001,0
			c0.202,0.086,0.358,0.244,0.442,0.451C16.4,45.992,16.4,46.219,16.317,46.425L16.317,46.425z M33.36,45.787
			c0.171,0.425-0.026,0.912-0.443,1.088c-0.201,0.086-0.423,0.086-0.625,0c-0.202-0.084-0.36-0.244-0.442-0.45
			c-0.084-0.206-0.084-0.433,0-0.638c0.082-0.207,0.24-0.366,0.442-0.451l0,0l0,0c0.103-0.043,0.208-0.063,0.312-0.063
			C32.925,45.272,33.229,45.467,33.36,45.787z M24.083,48.667c-0.45,0-0.816-0.374-0.816-0.834c0-0.458,0.366-0.832,0.816-0.832
			c0.451,0,0.817,0.374,0.817,0.832C24.9,48.293,24.534,48.667,24.083,48.667z M44.344,33.049c0.201-0.084,0.424-0.084,0.625,0
			c0.201,0.086,0.358,0.246,0.442,0.452c0.083,0.206,0.083,0.431,0,0.638c-0.084,0.205-0.241,0.365-0.442,0.451
			c-0.201,0.084-0.424,0.084-0.625,0c-0.202-0.086-0.359-0.246-0.443-0.451c-0.082-0.207-0.082-0.432,0-0.638
			C43.984,33.295,44.142,33.135,44.344,33.049z M46.352,24.298c0.45,0,0.817,0.374,0.817,0.833s-0.368,0.833-0.817,0.833
			c-0.45,0-0.819-0.374-0.819-0.833S45.901,24.298,46.352,24.298L46.352,24.298z M39.25,8.49c0.154-0.157,0.359-0.244,0.578-0.244
			s0.424,0.087,0.578,0.244c0.155,0.156,0.239,0.366,0.239,0.588c0,0.223-0.084,0.432-0.239,0.59
			c-0.154,0.158-0.359,0.243-0.578,0.243s-0.424-0.085-0.578-0.243C38.932,9.343,38.932,8.814,39.25,8.49z M40.407,40.596
			c0.154,0.156,0.238,0.365,0.238,0.589c0,0.223-0.084,0.433-0.238,0.589c-0.155,0.158-0.36,0.244-0.579,0.244
			s-0.424-0.086-0.578-0.244c-0.318-0.325-0.318-0.854,0-1.178c0.154-0.158,0.359-0.244,0.578-0.244S40.252,40.438,40.407,40.596
			L40.407,40.596z"/>
		<path fill="#F29DB3" d="M37.854,25.131c0-1.267-1.012-2.298-2.253-2.298c-1.243,0-2.255,1.031-2.255,2.298
			s1.012,2.298,2.255,2.298C36.843,27.43,37.854,26.398,37.854,25.131z M34.783,25.131c0-0.459,0.367-0.833,0.818-0.833
			c0.449,0,0.816,0.374,0.816,0.833s-0.367,0.833-0.816,0.833C35.15,25.964,34.783,25.591,34.783,25.131z"/>
		<path fill="#F29DB3" d="M10.312,25.131c0,1.267,1.011,2.298,2.253,2.298c1.243,0,2.255-1.031,2.255-2.298
			s-1.012-2.298-2.255-2.298C11.323,22.833,10.312,23.864,10.312,25.131z M13.383,25.131c0,0.459-0.366,0.833-0.817,0.833
			c-0.449,0-0.816-0.374-0.816-0.833s0.367-0.833,0.816-0.833C13.017,24.298,13.383,24.672,13.383,25.131z"/>
		<path fill="#F29DB3" d="M14.346,15.203c-0.426,0.434-0.66,1.011-0.66,1.625c0,0.614,0.234,1.191,0.66,1.625
			s0.991,0.673,1.594,0.673s1.168-0.239,1.594-0.673s0.66-1.011,0.66-1.625c0-0.614-0.234-1.191-0.66-1.625
			s-0.991-0.672-1.594-0.672S14.771,14.769,14.346,15.203z M16.757,16.828c0,0.223-0.085,0.432-0.24,0.59
			c-0.154,0.157-0.359,0.244-0.577,0.244c-0.219,0-0.424-0.086-0.577-0.244c-0.155-0.158-0.24-0.367-0.24-0.59
			s0.085-0.431,0.24-0.588c0.153-0.159,0.358-0.245,0.577-0.245c0.218,0,0.423,0.086,0.577,0.245
			C16.672,16.397,16.757,16.605,16.757,16.828L16.757,16.828z"/>
		<path fill="#F29DB3" d="M32.228,35.732c0.603,0,1.168-0.238,1.594-0.673c0.426-0.433,0.66-1.011,0.66-1.625
			s-0.234-1.191-0.66-1.626c-0.425-0.434-0.991-0.672-1.594-0.672s-1.168,0.238-1.594,0.672c-0.426,0.435-0.66,1.012-0.66,1.626
			s0.234,1.192,0.66,1.625C31.06,35.494,31.625,35.732,32.228,35.732z M31.649,32.846c0.154-0.158,0.359-0.244,0.578-0.244
			s0.424,0.086,0.577,0.244c0.155,0.158,0.24,0.365,0.24,0.589s-0.085,0.433-0.24,0.589c-0.153,0.158-0.358,0.244-0.577,0.244
			s-0.424-0.086-0.578-0.244c-0.154-0.156-0.239-0.365-0.239-0.589S31.495,33.004,31.649,32.846L31.649,32.846z"/>
		<path fill="#F29DB3" d="M32.805,17.418c-0.153,0.157-0.358,0.244-0.577,0.244s-0.424-0.086-0.578-0.244
			c-0.154-0.158-0.239-0.367-0.239-0.59s0.085-0.431,0.239-0.588c0.28-0.287,0.28-0.751,0-1.037c-0.281-0.286-0.736-0.286-1.016,0
			c-0.426,0.434-0.66,1.011-0.66,1.625c0,0.614,0.234,1.191,0.66,1.625s0.991,0.673,1.594,0.673s1.169-0.239,1.594-0.673
			c0.281-0.286,0.281-0.749,0-1.035C33.54,17.131,33.087,17.131,32.805,17.418L32.805,17.418z"/>
		<path fill="#F29DB3" d="M15.939,35.732c0.603,0,1.168-0.238,1.594-0.673c0.28-0.286,0.28-0.749,0-1.036
			c-0.28-0.285-0.735-0.285-1.017,0c-0.154,0.158-0.358,0.244-0.577,0.244s-0.424-0.086-0.577-0.244
			c-0.155-0.156-0.24-0.365-0.24-0.589s0.085-0.433,0.24-0.589c0.28-0.286,0.28-0.75,0-1.037c-0.281-0.285-0.736-0.285-1.017,0
			c-0.426,0.435-0.66,1.012-0.66,1.626s0.234,1.19,0.66,1.625S15.337,35.732,15.939,35.732L15.939,35.732z"/>
		<path fill="#F29DB3" d="M24.083,18.136c-1.242,0-2.254,1.031-2.254,2.298s1.012,2.298,2.254,2.298
			c1.243,0,2.254-1.031,2.254-2.298S25.326,18.136,24.083,18.136z M24.083,21.267c-0.45,0-0.816-0.373-0.816-0.833
			c0-0.459,0.366-0.833,0.816-0.833c0.451,0,0.817,0.374,0.817,0.833C24.9,20.894,24.534,21.267,24.083,21.267z"/>
		<path fill="#F29DB3" d="M24.083,27.531c-1.242,0-2.254,1.03-2.254,2.297c0,1.268,1.012,2.299,2.254,2.299
			c1.243,0,2.254-1.031,2.254-2.299C26.337,28.562,25.326,27.531,24.083,27.531z M24.083,30.662c-0.45,0-0.816-0.374-0.816-0.834
			c0-0.459,0.366-0.832,0.816-0.832c0.451,0,0.817,0.373,0.817,0.832C24.9,30.288,24.534,30.662,24.083,30.662z"/>
		<path fill="#F29DB3" d="M30.944,25.131c0-1.267-1.011-2.298-2.254-2.298s-2.254,1.031-2.254,2.298s1.011,2.298,2.253,2.298
			C29.934,27.43,30.944,26.398,30.944,25.131z M28.69,25.964c-0.45,0-0.817-0.374-0.817-0.833s0.367-0.833,0.817-0.833
			s0.817,0.374,0.817,0.833S29.141,25.964,28.69,25.964z"/>
		<path fill="#F29DB3" d="M21.73,25.131c0-1.267-1.011-2.298-2.254-2.298s-2.254,1.031-2.254,2.298s1.011,2.298,2.254,2.298
			S21.73,26.398,21.73,25.131z M19.477,25.964c-0.451,0-0.817-0.374-0.817-0.833s0.366-0.833,0.817-0.833
			c0.45,0,0.816,0.374,0.816,0.833S19.927,25.964,19.477,25.964z"/>
		<path fill="#F29DB3" d="M19.477,21.167h0.008c0.396,0,0.714-0.329,0.714-0.733c0-0.404-0.325-0.731-0.722-0.731
			c-0.397,0-0.719,0.327-0.719,0.731C18.758,20.839,19.079,21.167,19.477,21.167z"/>
		<path fill="#F29DB3" d="M19.484,30.561c0.396,0,0.714-0.328,0.714-0.732s-0.325-0.732-0.722-0.732
			c-0.397,0-0.719,0.328-0.719,0.732s0.321,0.732,0.719,0.732H19.484z"/>
		<path fill="#F29DB3" d="M27.964,20.434c0,0.405,0.322,0.733,0.719,0.733h0.008c0.396,0,0.714-0.329,0.714-0.733
			c0-0.404-0.324-0.731-0.722-0.731C28.286,19.703,27.964,20.03,27.964,20.434L27.964,20.434z"/>
		<path fill="#F29DB3" d="M19.676,15.018c0.092,0,0.186-0.018,0.275-0.057l0.007-0.002c0.366-0.155,0.537-0.583,0.386-0.956
			c-0.152-0.375-0.576-0.55-0.942-0.395c-0.367,0.154-0.541,0.583-0.389,0.957C19.127,14.847,19.394,15.018,19.676,15.018z"/>
		<path fill="#F29DB3" d="M34.448,19.963c-0.366,0.156-0.54,0.584-0.388,0.958c0.115,0.281,0.382,0.451,0.664,0.451
			c0.092,0,0.187-0.019,0.276-0.057l0.007-0.004c0.367-0.155,0.536-0.583,0.383-0.957C35.238,19.982,34.812,19.809,34.448,19.963
			L34.448,19.963z"/>
		<path fill="#F29DB3" d="M13.443,30.359c0.091,0,0.185-0.019,0.275-0.056l0.007-0.004c0.367-0.154,0.537-0.582,0.384-0.954
			c-0.151-0.375-0.575-0.551-0.941-0.396c-0.366,0.156-0.541,0.584-0.389,0.957C12.894,30.189,13.161,30.359,13.443,30.359
			L13.443,30.359z"/>
		<path fill="#F29DB3" d="M28.217,35.305c-0.367,0.156-0.541,0.584-0.39,0.957c0.115,0.281,0.382,0.452,0.664,0.452
			c0.092,0,0.186-0.018,0.275-0.056l0.007-0.003c0.366-0.154,0.537-0.581,0.385-0.956C29.007,35.325,28.582,35.15,28.217,35.305
			L28.217,35.305z"/>
		<path fill="#F29DB3" d="M28.683,29.096c-0.396,0-0.719,0.328-0.719,0.732s0.322,0.732,0.719,0.732h0.008
			c0.396,0,0.714-0.328,0.714-0.732S29.08,29.096,28.683,29.096L28.683,29.096z"/>
		<path fill="#F29DB3" d="M12.782,20.361c-0.153,0.373,0.021,0.802,0.387,0.957c0.09,0.039,0.184,0.057,0.275,0.057
			c0.282,0,0.55-0.17,0.663-0.451l0.004-0.008c0.151-0.373-0.022-0.798-0.389-0.954C13.356,19.807,12.934,19.986,12.782,20.361
			L12.782,20.361z"/>
		<path fill="#F29DB3" d="M28.768,13.605c-0.368-0.154-0.789,0.029-0.939,0.404s0.026,0.803,0.393,0.956
			c0.09,0.037,0.183,0.055,0.272,0.055c0.284,0,0.551-0.172,0.665-0.456l0.003-0.006C29.312,14.182,29.134,13.758,28.768,13.605
			L28.768,13.605z"/>
		<path fill="#F29DB3" d="M19.401,36.66c0.091,0.038,0.185,0.056,0.276,0.056c0.282,0,0.549-0.171,0.664-0.45l0.003-0.008
			c0.152-0.373-0.022-0.799-0.389-0.953c-0.366-0.156-0.788,0.025-0.941,0.396C18.862,36.076,19.035,36.505,19.401,36.66
			L19.401,36.66z"/>
		<path fill="#F29DB3" d="M35.39,29.91l0.003-0.008c0.153-0.373-0.022-0.799-0.389-0.953c-0.365-0.155-0.788,0.025-0.941,0.398
			c-0.151,0.373,0.021,0.801,0.388,0.958c0.09,0.037,0.184,0.057,0.276,0.057C35.008,30.362,35.275,30.192,35.39,29.91L35.39,29.91z
			"/>
	</g>
	<g>
		<path fill="#3E4F6D" d="M55.813,21.13c0-1.003,0.177-2.004,0.53-3.001c0.354-0.996,0.87-1.886,1.547-2.671
			c0.677-0.786,1.504-1.421,2.481-1.907s2.089-0.731,3.336-0.731c1.462,0,2.732,0.339,3.809,1.013
			c1.078,0.675,1.878,1.553,2.401,2.636l-2.908,2.071c-0.17-0.438-0.385-0.803-0.646-1.094c-0.262-0.29-0.547-0.524-0.854-0.706
			c-0.308-0.181-0.627-0.306-0.958-0.376s-0.643-0.106-0.935-0.106c-0.678,0-1.263,0.149-1.756,0.447
			c-0.491,0.298-0.899,0.683-1.223,1.152c-0.323,0.472-0.565,1.005-0.728,1.602c-0.161,0.597-0.241,1.2-0.241,1.812
			c0,0.659,0.096,1.294,0.287,1.907c0.193,0.612,0.463,1.153,0.809,1.624c0.347,0.472,0.767,0.844,1.258,1.119
			c0.492,0.274,1.039,0.411,1.64,0.411c0.308,0,0.627-0.043,0.959-0.129c0.33-0.086,0.649-0.219,0.957-0.4
			c0.309-0.18,0.585-0.415,0.831-0.706c0.247-0.291,0.446-0.647,0.601-1.07l3.117,1.859c-0.247,0.612-0.604,1.161-1.073,1.647
			c-0.47,0.486-1.005,0.895-1.605,1.224c-0.601,0.331-1.235,0.581-1.905,0.753c-0.669,0.174-1.327,0.26-1.974,0.26
			c-1.139,0-2.182-0.248-3.128-0.742c-0.946-0.493-1.763-1.148-2.447-1.965s-1.22-1.742-1.604-2.778
			C56.005,23.249,55.813,22.198,55.813,21.13z"/>
		<path fill="#3E4F6D" d="M78.299,29.77c-1.17,0-2.231-0.243-3.187-0.73c-0.953-0.486-1.773-1.125-2.458-1.918
			c-0.686-0.792-1.216-1.699-1.593-2.719c-0.378-1.019-0.565-2.071-0.565-3.153c0-1.098,0.195-2.158,0.589-3.178
			c0.392-1.02,0.938-1.918,1.639-2.695c0.7-0.777,1.531-1.396,2.493-1.859s2.012-0.696,3.151-0.696c1.169,0,2.231,0.245,3.186,0.731
			c0.955,0.486,1.773,1.129,2.459,1.93c0.686,0.8,1.213,1.71,1.582,2.73c0.369,1.02,0.554,2.056,0.554,3.106
			c0,1.098-0.196,2.158-0.589,3.178c-0.393,1.02-0.935,1.918-1.628,2.696c-0.692,0.776-1.52,1.4-2.481,1.87
			C80.488,29.533,79.438,29.77,78.299,29.77z M74.351,21.295c0,0.645,0.089,1.268,0.266,1.872c0.178,0.604,0.431,1.141,0.763,1.612
			c0.33,0.472,0.746,0.847,1.247,1.13c0.499,0.282,1.073,0.422,1.72,0.422c0.661,0,1.237-0.148,1.73-0.446
			c0.493-0.299,0.904-0.687,1.235-1.166c0.332-0.479,0.577-1.021,0.738-1.625c0.162-0.604,0.244-1.219,0.244-1.847
			c0-0.644-0.09-1.267-0.267-1.872c-0.177-0.603-0.435-1.137-0.773-1.601c-0.339-0.462-0.754-0.831-1.247-1.106
			c-0.492-0.274-1.054-0.411-1.685-0.411c-0.663,0-1.239,0.145-1.731,0.436c-0.492,0.29-0.905,0.67-1.234,1.141
			c-0.332,0.472-0.582,1.009-0.751,1.614C74.436,20.053,74.351,20.669,74.351,21.295z"/>
		<path fill="#3E4F6D" d="M89.635,12.916l3.878,11.863l3.811-11.863h3.993l-6.233,16.713H91.92l-6.279-16.713H89.635z"/>
		<path fill="#3E4F6D" d="M103.278,29.629V12.916h3.786v16.713H103.278z"/>
		<path fill="#3E4F6D" d="M109.742,29.629V12.916h6.118c1.354,0,2.54,0.22,3.556,0.659s1.866,1.036,2.552,1.788
			c0.684,0.754,1.2,1.637,1.546,2.649c0.348,1.012,0.52,2.091,0.52,3.236c0,1.271-0.192,2.42-0.577,3.449
			c-0.386,1.027-0.935,1.906-1.65,2.636s-1.577,1.294-2.586,1.694s-2.128,0.602-3.359,0.602H109.742z M120.179,21.249
			c0-0.737-0.098-1.409-0.29-2.013c-0.191-0.603-0.473-1.125-0.842-1.564s-0.823-0.776-1.362-1.013
			c-0.539-0.234-1.146-0.352-1.824-0.352h-2.332v9.933h2.332c0.693,0,1.309-0.125,1.848-0.375c0.539-0.251,0.988-0.601,1.351-1.048
			c0.361-0.448,0.639-0.974,0.83-1.577C120.081,22.634,120.179,21.971,120.179,21.249z"/>
		<path fill="#3E4F6D" d="M126.434,24.85v-3.389h7.111v3.389H126.434z"/>
		<path fill="#DD3864" d="M146.635,27.758v3.389h-9.973v-3.389h3.277v-6.003c-0.138,0.189-0.357,0.38-0.657,0.576
			c-0.301,0.198-0.628,0.377-0.982,0.542c-0.353,0.166-0.72,0.299-1.096,0.401c-0.377,0.102-0.712,0.153-1.005,0.153v-3.484
			c0.246,0,0.566-0.086,0.958-0.259c0.393-0.172,0.782-0.379,1.167-0.624c0.384-0.242,0.73-0.49,1.038-0.741
			c0.308-0.25,0.501-0.455,0.577-0.612h3.764v10.052H146.635z"/>
		<path fill="#DD3864" d="M147.419,23.567c0-0.816,0.154-1.58,0.461-2.294c0.31-0.715,0.731-1.333,1.271-1.86
			c0.539-0.526,1.178-0.942,1.917-1.248c0.738-0.307,1.539-0.459,2.4-0.459c0.955,0,1.809,0.181,2.562,0.542
			c0.754,0.361,1.394,0.879,1.916,1.553c0.523,0.675,0.924,1.507,1.2,2.495c0.278,0.989,0.416,2.104,0.416,3.343
			c0,1.46-0.15,2.758-0.45,3.896c-0.299,1.138-0.727,2.095-1.281,2.872c-0.555,0.775-1.231,1.368-2.031,1.777
			c-0.801,0.406-1.701,0.612-2.701,0.612c-1.016,0-1.959-0.214-2.828-0.636c-0.869-0.424-1.636-1.037-2.297-1.836l2.078-2.402
			c0.384,0.503,0.846,0.895,1.385,1.178c0.539,0.281,1.108,0.424,1.709,0.424c0.907,0,1.626-0.33,2.157-0.989s0.812-1.591,0.844-2.8
			c-0.309,0.422-0.717,0.753-1.225,0.987c-0.507,0.235-1.1,0.354-1.776,0.354c-0.817,0-1.575-0.143-2.275-0.425
			c-0.699-0.282-1.304-0.671-1.812-1.166c-0.507-0.493-0.907-1.073-1.2-1.741C147.565,25.078,147.419,24.352,147.419,23.567z
			 M153.468,20.884c-0.339,0-0.662,0.07-0.969,0.211c-0.309,0.142-0.577,0.335-0.81,0.577c-0.23,0.245-0.414,0.53-0.554,0.86
			c-0.139,0.329-0.208,0.675-0.208,1.035c0,0.362,0.065,0.694,0.197,1.001c0.13,0.305,0.312,0.573,0.541,0.799
			c0.232,0.228,0.501,0.409,0.809,0.542c0.309,0.133,0.639,0.2,0.993,0.2c0.338,0,0.661-0.066,0.971-0.2
			c0.307-0.133,0.577-0.314,0.807-0.542c0.231-0.227,0.417-0.495,0.555-0.799c0.138-0.307,0.207-0.64,0.207-1.001
			c0-0.36-0.069-0.706-0.207-1.035c-0.138-0.33-0.323-0.615-0.555-0.86c-0.229-0.242-0.5-0.435-0.807-0.577
			C154.129,20.954,153.806,20.884,153.468,20.884z"/>
		<g>
			<path fill="#DD3864" d="M76.271,45.145h-3.534v-6.646c0-0.781-0.137-1.348-0.409-1.7c-0.273-0.353-0.638-0.53-1.094-0.53
				c-0.472,0-0.932,0.195-1.381,0.587c-0.449,0.391-0.777,0.894-0.983,1.509v6.781h-3.535v-6.646c0-0.781-0.137-1.348-0.409-1.7
				s-0.637-0.53-1.093-0.53c-0.473,0-0.933,0.191-1.382,0.575s-0.777,0.89-0.982,1.521v6.781h-3.536V33.317h3.182V35.3
				c0.427-0.722,1.01-1.269,1.746-1.644c0.736-0.377,1.591-0.564,2.563-0.564c0.471,0,0.891,0.061,1.259,0.181
				s0.681,0.285,0.939,0.495c0.258,0.211,0.472,0.455,0.641,0.732s0.29,0.574,0.365,0.891c0.427-0.736,1.001-1.303,1.723-1.702
				c0.722-0.396,1.546-0.597,2.475-0.597c0.736,0,1.329,0.139,1.779,0.417c0.448,0.278,0.799,0.638,1.049,1.081
				s0.416,0.928,0.498,1.453c0.08,0.525,0.12,1.037,0.12,1.531V45.145z"/>
			<path fill="#DD3864" d="M83.695,45.369c-0.972,0-1.845-0.161-2.618-0.484c-0.772-0.322-1.429-0.762-1.967-1.318
				c-0.537-0.555-0.946-1.197-1.226-1.924c-0.28-0.73-0.42-1.492-0.42-2.289c0-0.855,0.14-1.662,0.42-2.42
				c0.279-0.76,0.685-1.424,1.215-1.994s1.183-1.021,1.956-1.353c0.772-0.329,1.653-0.495,2.64-0.495
				c0.987,0,1.863,0.166,2.63,0.495c0.766,0.331,1.415,0.778,1.945,1.342c0.529,0.563,0.931,1.212,1.203,1.947
				c0.272,0.736,0.408,1.511,0.408,2.321c0,0.209-0.007,0.417-0.021,0.619c-0.015,0.203-0.037,0.379-0.066,0.529h-8.572
				c0.059,0.797,0.342,1.4,0.851,1.813c0.508,0.413,1.085,0.62,1.733,0.62c0.517,0,1.013-0.129,1.492-0.384
				c0.479-0.255,0.799-0.601,0.961-1.036l3.005,0.856c-0.456,0.933-1.163,1.689-2.121,2.274
				C86.186,45.076,85.036,45.369,83.695,45.369z M86.148,38.116c-0.073-0.751-0.339-1.345-0.796-1.78
				c-0.456-0.436-1.024-0.654-1.701-0.654c-0.692,0-1.263,0.223-1.712,0.666c-0.449,0.442-0.711,1.032-0.784,1.769H86.148z"/>
			<path fill="#DD3864" d="M98.402,44.514c-0.486,0.211-1.029,0.405-1.647,0.586c-0.619,0.18-1.064,0.27-1.712,0.27
				c-0.441,0-0.857-0.056-1.247-0.168c-0.392-0.113-0.734-0.293-1.028-0.542c-0.295-0.247-0.527-0.574-0.696-0.979
				c-0.169-0.404-0.255-0.895-0.255-1.464v-6.173h-1.669v-2.726h1.669v-3.763h3.338v3.763h2.373v2.726h-2.373v4.934
				c0,0.391,0.1,0.672,0.298,0.846c0.198,0.172,0.445,0.258,0.74,0.258c0.25,0,0.515-0.045,0.795-0.135s0.53-0.188,0.752-0.293
				L98.402,44.514z"/>
			<path fill="#DD3864" d="M104.885,45.369c-0.973,0-1.845-0.161-2.618-0.484c-0.772-0.322-1.429-0.762-1.967-1.318
				c-0.537-0.555-0.946-1.197-1.226-1.924c-0.28-0.73-0.42-1.492-0.42-2.289c0-0.855,0.14-1.662,0.42-2.42
				c0.279-0.76,0.685-1.424,1.215-1.994s1.183-1.021,1.956-1.353c0.772-0.329,1.653-0.495,2.64-0.495
				c0.987,0,1.863,0.166,2.63,0.495c0.766,0.331,1.414,0.778,1.944,1.342s0.932,1.212,1.204,1.947
				c0.272,0.736,0.408,1.511,0.408,2.321c0,0.209-0.007,0.417-0.021,0.619c-0.015,0.203-0.037,0.379-0.066,0.529h-8.572
				c0.058,0.797,0.342,1.4,0.851,1.813c0.508,0.413,1.085,0.62,1.733,0.62c0.516,0,1.013-0.129,1.492-0.384
				c0.479-0.255,0.799-0.601,0.961-1.036l3.005,0.856c-0.457,0.933-1.163,1.689-2.121,2.274
				C107.375,45.076,106.226,45.369,104.885,45.369z M107.338,38.116c-0.073-0.751-0.339-1.345-0.796-1.78
				c-0.456-0.436-1.024-0.654-1.701-0.654c-0.692,0-1.263,0.223-1.712,0.666c-0.449,0.442-0.712,1.032-0.784,1.769H107.338z"/>
			<path fill="#DD3864" d="M119.578,36.403c-0.854,0.015-1.624,0.158-2.309,0.429c-0.685,0.27-1.19,0.676-1.514,1.215v7.098h-3.535
				V33.317h3.248v2.388c0.412-0.797,0.931-1.416,1.558-1.857c0.626-0.444,1.292-0.681,1.999-0.711c0.296,0,0.479,0.008,0.553,0.021
				V36.403z"/>
		</g>
	</g>
</g>
</svg>
